<?xml version="1.0" standalone="no"?><!DOCTYPE svg PUBLIC "-//W3C//DTD SVG 1.1//EN"
        "http://www.w3.org/Graphics/SVG/1.1/DTD/svg11.dtd">
<svg t="1584585533080" class="icon" viewBox="0 0 1024 1024" version="1.1" xmlns="http://www.w3.org/2000/svg" p-id="2479"
     xmlns:xlink="http://www.w3.org/1999/xlink" width="200" height="200" fill="#66c0f4">
    <defs>
        <style
                type="text/css"></style>
    </defs>
    <path d="M68.191078 915.462005l161.384597 0L229.575676 431.30719 68.191078 431.30719 68.191078 915.462005zM955.808922 471.653083c0-44.582381-36.109406-80.69281-80.69281-80.69281L620.329241 390.960273 658.859789 206.578915c0.807389-4.034896 1.412163-8.271384 1.412163-12.709463 0-16.743336-6.859221-31.873941-17.752316-42.767036l-42.968627-42.565445L333.871043 374.216937c-14.524808 14.7264-23.602557 34.899858-23.602557 57.090253l0 403.462005c0 44.582381 36.109406 80.69281 80.69281 80.69281l363.116111 0c33.487695 0 62.133106-20.37505 74.236771-49.222051l121.643478-284.441261c3.63069-9.279341 5.850242-19.164478 5.850242-29.452799L955.807898 475.083206l-0.403183-0.403183L955.808922 471.653083z"></path>
</svg>