<?xml version="1.0" standalone="no"?><!DOCTYPE svg PUBLIC "-//W3C//DTD SVG 1.1//EN" "http://www.w3.org/Graphics/SVG/1.1/DTD/svg11.dtd"><svg t="1584597467043" class="icon" viewBox="0 0 1024 1024" version="1.1" xmlns="http://www.w3.org/2000/svg" p-id="6313" xmlns:xlink="http://www.w3.org/1999/xlink" width="200" height="200"><defs><style type="text/css"></style></defs><path d="M708.182 700.615a25.274 25.274 0 0 1-41.758 28.477 162.823 162.823 0 0 0-64.08-53.374 212.995 212.995 0 0 0-180.72 0 162.854 162.854 0 0 0-64.08 53.374 25.274 25.274 0 0 1-41.757-28.477 213.497 213.497 0 0 1 83.892-70.517 262.35 262.35 0 0 1 224.61 0 213.497 213.497 0 0 1 83.893 70.517zM511.984 1024C229.76 1024 0 794.302 0 511.984S229.76 0 511.984 0s512.11 229.666 512.11 511.984S794.302 1024 511.984 1024z m0-50.643c254.313 0 461.342-206.997 461.342-461.341S766.328 50.706 511.984 50.706 50.643 257.64 50.643 511.984 257.64 973.326 511.984 973.326zM727.71 462.001a42.982 42.982 0 0 1-37.676 1.538 135.508 135.508 0 0 1-36.42-21.475 299.806 299.806 0 0 1-38.586-39.717l206.495-119.903a806.893 806.893 0 0 1-29.23 80.28 680.082 680.082 0 0 1-30.266 61.036c-10.989 19.78-22.512 32.495-34.348 38.115zM202.414 282.569l206.495 119.778a299.524 299.524 0 0 1-38.618 39.623 136.952 136.952 0 0 1-36.482 21.381 43.296 43.296 0 0 1-37.676-1.538c-11.805-5.59-23.328-18.242-34.537-38.116a666.487 666.487 0 0 1-30.266-61.035 807.3 807.3 0 0 1-29.136-80.281z" p-id="6314" fill="#ffffff"></path></svg>