<?xml version="1.0" standalone="no"?><!DOCTYPE svg PUBLIC "-//W3C//DTD SVG 1.1//EN"
        "http://www.w3.org/Graphics/SVG/1.1/DTD/svg11.dtd">
<svg fill="#66c0f4" t="1584587802494" class="icon" viewBox="0 0 1229 1024" version="1.1" xmlns="http://www.w3.org/2000/svg" p-id="3047"
     xmlns:xlink="http://www.w3.org/1999/xlink" width="240.0390625" height="200">
    <defs>
        <style type="text/css " ></style>
    </defs>
    <path d="M1228.8 819.451443C1228.8 875.866522 1182.468198 921.6 1126.422784 921.6L605.945088 921.6C577.657958 921.6 532.837274 929.851648 506.804634 939.665101L300.419021 1017.465805C247.610112 1037.373082 204.8 1007.375002 204.8 950.875341L204.8 921.6 102.4 921.6C45.846067 921.6 0 875.897702 0 819.451443L0 102.148557C0 45.733478 45.927731 0 102.653286 0L1126.146714 0C1182.840576 0 1228.8 45.702298 1228.8 102.148557L1228.8 819.451443ZM204.8 819.2C261.353933 819.2 307.2 864.762522 307.2 896L460.660787 837.400525C486.984704 827.348634 531.055104 819.2 559.95817 819.2L1074.766336 819.2C1103.28279 819.2 1126.4 796.162611 1126.4 767.649536L1126.4 153.950464C1126.4 125.479936 1103.088333 102.4 1075.619686 102.4L153.180314 102.4C125.135104 102.4 102.4 125.437389 102.4 153.950464L102.4 767.649536C102.4 796.120064 125.099674 819.2 154.079693 819.2L204.8 819.2ZM307.2 563.2C307.2 534.923008 330.534963 512 358.526618 512L870.273382 512C898.620262 512 921.6 534.725888 921.6 563.2 921.6 591.476992 898.265037 614.4 870.273382 614.4L358.526618 614.4C330.179738 614.4 307.2 591.674112 307.2 563.2ZM307.2 358.4C307.2 330.123008 330.534963 307.2 358.526618 307.2L870.273382 307.2C898.620262 307.2 921.6 329.925888 921.6 358.4 921.6 386.676992 898.265037 409.6 870.273382 409.6L358.526618 409.6C330.179738 409.6 307.2 386.874112 307.2 358.4Z"
          p-id="3048"></path>
</svg>