<?xml version="1.0" standalone="no"?><!DOCTYPE svg PUBLIC "-//W3C//DTD SVG 1.1//EN"
        "http://www.w3.org/Graphics/SVG/1.1/DTD/svg11.dtd">
<svg  fill="#f00" t="1584595076763" class="icon" viewBox="0 0 1024 1024" version="1.1" xmlns="http://www.w3.org/2000/svg" p-id="3673"
     xmlns:xlink="http://www.w3.org/1999/xlink" width="200" height="200">
    <defs>
        <style type="text/css"></style>
    </defs>
    <path d="M960.288 787.488c-98.88-154.08-287.36-469.568-385.76-622.912-21.44-27.968-71.872-44-102.88 0L61.504 803.872c-23.36 33.888-23.008 79.872 49.376 82.432h824.64c48.416-2.784 48.416-62.496 24.768-98.816z m-437.44-27.776a47.296 47.296 0 1 1 0-94.592 47.296 47.296 0 0 1 0 94.592z m35.456-165.536c0.448 11.52-10.944 23.68-23.648 23.68h-23.648c-12.672 0-23.2-12.16-23.616-23.68l-23.68-224.64c0-19.552 15.904-35.456 35.488-35.456h47.296c19.584 0 35.456 15.904 35.456 35.488l-23.648 224.64z"
          p-id="3674"></path>
</svg>