<?xml version="1.0" standalone="no"?><!DOCTYPE svg PUBLIC "-//W3C//DTD SVG 1.1//EN" "http://www.w3.org/Graphics/SVG/1.1/DTD/svg11.dtd"><svg t="1584597565073" class="icon" viewBox="0 0 1024 1024" version="1.1" xmlns="http://www.w3.org/2000/svg" p-id="7231" xmlns:xlink="http://www.w3.org/1999/xlink" width="200" height="200"><defs><style type="text/css"></style></defs><path d="M512 46.545455C255.348364 46.545455 46.545455 255.348364 46.545455 512s208.802909 465.454545 465.454545 465.454545 465.454545-208.802909 465.454545-465.454545S768.651636 46.545455 512 46.545455m0 977.454545C229.678545 1024 0 794.321455 0 512S229.678545 0 512 0s512 229.678545 512 512-229.678545 512-512 512" fill="#ffffff" p-id="7232"></path><path d="M207.429818 465.454545a23.296 23.296 0 0 1-9.262545-44.613818L309.853091 372.363636l-111.709091-48.477091a23.272727 23.272727 0 1 1 18.525091-42.682181l160.930909 69.818181a23.272727 23.272727 0 0 1 0 42.682182l-160.930909 69.818182a22.784 22.784 0 0 1-9.239273 1.931636M810.496 465.454545a22.784 22.784 0 0 1-9.239273-1.931636l-160.930909-69.818182a23.272727 23.272727 0 0 1 0-42.682182l160.930909-69.818181a23.272727 23.272727 0 0 1 18.501818 42.682181L708.049455 372.363636l111.70909 48.477091A23.272727 23.272727 0 0 1 810.496 465.454545M306.757818 758.318545c22.574545-14.661818 97.559273-57.716364 201.565091-57.716363 106.449455 0 186.298182 45.102545 207.918546 58.670545A280.273455 280.273455 0 0 1 512 846.731636a280.389818 280.389818 0 0 1-205.242182-88.413091z m-118.528-203.86909l0.721455 21.59709A322.117818 322.117818 0 0 0 512 888.482909a322.094545 322.094545 0 0 0 323.025455-312.436364l0.744727-21.59709H188.229818z" fill="#ffffff" p-id="7233"></path></svg>