<svg version="1.1" xmlns="http://www.w3.org/2000/svg" width="768" height="768" viewBox="0 0 768 768" fill="#FFFFFF">
<title></title>
<g id="icomoon-ignore">
</g>
<path d="M480 352v-352h-160v352h-126.496l203.616 203.648 203.616-203.648zM645.12 224h-101.12v64h101.12c17.632 0 26.88 0.512 26.88 18.112v240c0 26.496-16.448 61.888-42.88 61.888h-490.176c-26.432 0-42.88-35.392-42.88-61.888v-240c0-17.6 9.248-18.112 26.88-18.112h101.12v-64h-101.12c-52.928 0-90.88 29.184-90.88 82.112v352c0 52.928 37.952 109.888 90.88 109.888h522.176c52.928 0 90.88-56.928 90.88-109.888v-352c0-52.928-37.952-82.112-90.88-82.112zM672 658.112c0 17.632-9.248 45.888-26.88 45.888h-522.176c-17.632 0-26.88-28.256-26.88-45.888v-48.416c0 10.144 24.8 30.272 42.88 30.272h490.176c18.048 0 42.88-20.128 42.88-30.272v48.416z"></path>
</svg>
